<svg width="399" height="399" viewBox="0 0 399 399" fill="none" xmlns="http://www.w3.org/2000/svg">
<path d="M344 258.7C331 259.7 320 257.7 307 256.7C306 256.7 304 254.7 303 254.7C292 252.7 282 247.7 272 242.7C326 233.7 373 196.7 397 148.7C388 129.7 381 108.7 371 89.7002C357 130.7 325 167.7 281 178.7C286 172.7 290 165.7 294 158.7C295 154.7 297 151.7 299 147.7C315 108.7 316 63.7002 303 23.7002C298 23.7002 294 20.7002 290 18.7002C274 12.7002 258 7.7002 243 0.700195C246 7.7002 250 14.7002 252 22.7002C253 26.7002 254 29.7002 255 33.7002C261 56.7002 260 79.7002 254 101.7C253 104.7 252 107.7 251 110.7C248 116.7 246 122.7 242 127.7C235 73.7002 196 26.7002 148 2.7002C129 11.7002 108 18.7002 89 28.7002C130 42.7002 169 74.7002 178 118.7C160 101.7 136 94.7002 111 90.7002C91 86.7002 72 85.7002 51 89.7002C42 91.7002 33 93.7002 24 96.7002C16 116.7 8 136.7 0 156.7C39 137.7 89 132.7 127 157.7C89 161.7 56 182.7 30 210.7C27 214.7 25 217.7 21 221.7C13 230.7 8 241.7 2 251.7C10 265.7 14 280.7 21 295.7C24 300.7 26 305.7 28 310.7C42 268.7 74 231.7 118 220.7C113 228.7 108 237.7 103 246.7C102 250.7 100 253.7 98 257.7C83 295.7 84 337.7 97 375.7C117 382.7 136 393.7 157 398.7C137 360.7 134 310.7 157 272.7C158 282.7 162 291.7 164 301.7C165 305.7 167 308.7 169 312.7C186 348.7 215 378.7 251 396.7C262 393.7 270 387.7 281 383.7C291 380.7 300 375.7 310 371.7C269 356.7 231 325.7 221 281.7C265 312.7 325 320.7 376 302.7C383 282.7 392 262.7 399 242.7C382 251.7 363 255.7 344 258.7Z" fill="#143448"/>
</svg>
